<?xml version="1.0" encoding="UTF-8" standalone="no"?>
<svg
   xmlns:dc="http://purl.org/dc/elements/1.1/"
   xmlns:cc="http://creativecommons.org/ns#"
   xmlns:rdf="http://www.w3.org/1999/02/22-rdf-syntax-ns#"
   xmlns:svg="http://www.w3.org/2000/svg"
   xmlns="http://www.w3.org/2000/svg"
   xmlns:sodipodi="http://sodipodi.sourceforge.net/DTD/sodipodi-0.dtd"
   xmlns:inkscape="http://www.inkscape.org/namespaces/inkscape"
   width="882.77173"
   height="812.16046"
   id="Flag_of_Iran_1964"
   version="1.1"
   inkscape:version="0.48.1 "
   sodipodi:docname="Aa.svg">
  <metadata
     id="metadata13">
    <rdf:RDF>
      <cc:Work
         rdf:about="">
        <dc:format>image/svg+xml</dc:format>
        <dc:type
           rdf:resource="http://purl.org/dc/dcmitype/StillImage" />
      </cc:Work>
    </rdf:RDF>
  </metadata>
  <defs
     id="defs11" />
  <sodipodi:namedview
     pagecolor="#ffffff"
     bordercolor="#666666"
     borderopacity="1"
     objecttolerance="10"
     gridtolerance="10"
     guidetolerance="10"
     inkscape:pageopacity="0"
     inkscape:pageshadow="2"
     inkscape:window-width="1280"
     inkscape:window-height="1004"
     id="namedview9"
     showgrid="false"
     fit-margin-top="0"
     fit-margin-left="0"
     fit-margin-right="0"
     fit-margin-bottom="0"
     inkscape:zoom="0.6151829"
     inkscape:cx="702.76849"
     inkscape:cy="452.61896"
     inkscape:window-x="-8"
     inkscape:window-y="-8"
     inkscape:window-maximized="1"
     inkscape:current-layer="Flag_of_Iran_1964" />
  <path
     style="fill:#ffffff;stroke:#239f40;stroke-width:4;stroke-miterlimit:4;stroke-opacity:1;stroke-dasharray:none"
     d="m 87.0148,267.77616 c -1.8276,1.21985 -11.4265,5.79033 -11.4835,9.01724 -0.085,4.19 1.4385,8.008 1.6875,12.125 -3.446,-0.005 -6.539,-0.89575 -9.25,-2.71875 -1.298,4.424 -5.5905,9.865 -1.4375,13.5 4.226,3.653 5.0685,6.45675 2.4375,12.21875 -2.882,6.324 -8.0104,7.51925 -3.0312,12.53125 3.3528,3.381 6.2687,7.26625 9.7187,10.53125 4.714,4.457 33.9935,30.0365 17.3125,35.1875 7.088,2.867 0.4763,8.7285 10.6562,7.8125 6.0802,-0.553 11.1613,3.60825 15.5313,6.90625 8.003,6.045 13.9328,17.954 24.5937,20 13.9681,2.683 11.6423,8.9095 19.2813,19.6875 7.502,10.599 14.4977,13.35125 9.9687,28.53125 -3.3929,11.421 -10.8319,34.46775 5.5,33.84375 10.3812,-0.393 5.4713,14.6 5.6563,22.125 0.299,11.838 13.2402,12.54275 15.9063,22.09375 1.0432,3.73026 0.9655,8.3791 3.4062,11.21875 l 4.625,0 c 24.6988,-18.19213 10.868,-29.3973 30.0312,-12.46875 2.4561,6.53 10.1483,1.56775 14.1563,8.46875 5.955,10.299 22.3632,-20.0655 26.9063,-2.8125 0.6222,2.37211 6.961,8.79702 7.7908,10.97917 l 483.05541,-0.28736 c 3.8206,-7.53312 18.45507,-20.25491 22.90374,-25.84806 6.557,-8.232 15.085,-16.88625 19.25,-26.53125 4.054,-9.379 8.17925,-26.417 -1.71875,-31.875 -9.482,-5.215 -29.30325,1.4475 -36.40625,-7.0625 -9.384,-11.219 -1.37025,-30.5035 -3.40625,-44.3125 -1.979,-13.325 -17.3665,-34.581 -10.1875,-48.75 3.953,-7.777 20.01475,-20.523 4.71875,-21.5 -11.92,-0.76 -14.29475,-24.47475 -9.59375,-34.59375 2.624,-5.639 12.5005,-7.00975 13.9375,-11.34375 0.941,-2.711 -3.688,-7.25425 -4.75,-9.28125 7.98468,-0.9551 11.25822,-11.40787 13.41918,-18.68534 z"
     id="rect5"
     inkscape:connector-curvature="0"
     sodipodi:nodetypes="cccccccccccccccccccccccccccccccccccc" />
  <path
     id="path3788"
     d="m 203.4688,542.38715 c 0.5867,0.68264 1.3221,1.25027 2.25,1.6875 0.829,-0.56852 1.62,-1.13143 2.375,-1.6875 l -4.625,0 z m 77.9062,0 c 2.6948,7.08604 6.4884,13.27453 11.5,19.15625 3.8861,4.565 16.9008,14.06175 11.2188,22.84375 -4.344,6.792 4.8936,5.9885 8.4688,6.8125 5.3568,1.231 5.7959,7.947 -1.5,7.25 -0.5931,6.505 5.6247,8.3335 9.3437,11.6875 5.451,4.917 2.1301,13.3315 5.2813,19.4375 6.6489,12.922 8.7448,21.40925 19.75,30.65625 4.9728,4.185 13.8439,1.4875 20.125,3.0625 4.4708,1.122 7.9737,5.091 12.0937,7.125 4.54,2.231 24.2505,9.81025 15.0625,18.15625 8.279,4.041 15.8445,9.22775 23.6875,13.96875 6.008,3.642 15.2171,5.71375 18.7813,12.21875 7.2238,13.027 15.0402,10.17775 28.6562,10.09375 11.076,-0.068 20.3376,16.19425 32.2188,10.15625 7.0538,-3.582 10.7785,-12.2535 18.9374,-14.3125 1.1032,-0.278 16.8608,1.76 15.0938,-3 -2.761,-7.433 5.1922,-8.727 11.5312,-10.625 7.60312,-2.274 13.9543,-9.193 21.9063,-9.875 17.448,-1.49 32.25925,8.54125 33.40625,26.90625 1.364,14.599 2.7705,38.14875 12.8125,48.71875 15.396,8.106 22.73275,5.46175 34.21875,14.59375 5.884,2.61 11.55475,-2.6115 17.46875,-0.9375 7.427,2.097 13.48875,-1.1255 20.09375,4.0625 4.945,3.887 9.5745,7.8075 16.5625,5.5625 8.285,-2.652 22.3255,-3.639 29.0625,2.375 1.751,1.571 24.25825,2.156 26.28125,1.75 -4.043,-4.165 6.474,-9.65275 7.375,-0.59375 0.646,6.56 11.03625,5.4995 15.40625,6.9375 3.896,1.281 28.30225,11.99675 25.90625,-0.15625 7.127,2.757 6.6325,-7.4555 6.5625,-11.8125 -0.174,-10.399 2.34025,-16.89275 5.53125,-26.34375 2.313,-6.838 -1.589,-17.02175 6.375,-21.34375 3.966,-2.155 11.46675,-5.86275 15.84375,-4.84375 -5.799,-20.835 40.401,-8.40575 42.875,-23.84375 1.443,-7.639 6.84125,-22.55725 0.28125,-24.53125 -14.111,-4.237 -20.21825,4.1105 -19.03125,-17.8125 0.42,-7.717 2.27475,-38.0515 -6.03125,-38.5625 -5.966,-0.369 -10.7035,-8.23925 -15.6875,-10.90625 -5.319,-2.84 -11.09425,-4.79325 -16.53125,-7.40625 -15.983,-7.68 -19.9215,-25.06525 -27.9375,-40.03125 -3.881,-7.431 -8.21525,-14.89475 -13.90625,-20.84375 -2.783,-2.914 -7.91875,-6.73525 -6.84375,-11.90625 0.25287,-1.21945 0.76477,-2.51731 1.4375,-3.84375 l -493.68755,0 z"
     style="fill:#da0000"
     inkscape:connector-curvature="0" />
  <path
     id="path3790"
     d="M 24.875,0.01214855 C 22.5419,-0.14860145 20.7528,1.2653986 20.2188,5.4808986 18.0558,22.446899 13.2212,15.973399 0,20.793399 c 3,4.19 9.6032,13.7165 6.625,19.3125 -2.644,4.993 4.5663,7.23725 5.4063,11.15625 1.901,8.878 -2.0451,24.2205 8.5937,27.9375 -5.6409,4.774 -9.4859,14.8115 -11,21.437501 -1.0108,4.428 9.1115,6.79025 11.6876,8.15625 8.2969,4.377 1.6838,13.23975 5.125,20.09375 3.3688,6.725 9.5657,2.733 8.2187,12.625 -0.389,2.83 4.671,23.351 6.125,24 5.652,2.509 5.8558,4.76325 4.4687,11.15625 -2.3739,10.96902 23.3275,15.52875 14.3126,31.96875 10.5408,-2.415 11.0208,3.944 18.25,8.25 4.7728,2.85 10.7918,0.2625 16.125,-0.3125 4.3848,-0.472 7.1568,2.86425 11.75,1.53125 -2.6941,7.608 -12.8088,5.90925 -15.4688,12.78125 -3.084,7.96 4.5095,13.664 7.1875,19.625 1.605,3.547 1.591,9.15125 -4.5,9.15625 -6.472,0.002 -6.4971,-2.223 -8.2813,5.625 -0.6792,2.9843 -3.3777,3.97918 -5.6562,5.5 l 700.09375,0 c 2.21255,-7.45123 2.35465,-16.09222 2.40625,-21.5625 0.07,-7.941 7.6245,-13.08525 8.0625,-20.53125 0.286,-4.728 -0.67875,-18.08775 -3.71875,-21.21875 -4.925,-5.063 0.4355,-3.77225 0.5625,-11.28125 0.073,-4.131 -2.46325,-6.98675 -2.53125,-10.96875 -0.039,-2.382 2.833,-17.3345 -0.75,-17.3125 -9.726,0.06 -27.375,3.5745 -35.5,-0.6875 -7.376,-3.892 -9.25325,-14.9835 -15.78125,-20.0625 -7.364,-5.725 -21.44425,-4.89775 -25.65625,-14.21875 -4.146,-9.155 -5.64375,-13.5585 -15.71875,-17.5625 -10.233,-4.062 -19.53025,-2.1085 -30.65625,-2.9375 -9.988,-0.745 -14.15875,-9.571 -23.46875,-11.25 -8.352,-1.516001 -23.28275,-1.800251 -26.34375,-10.406251 -3.22,-9.044 -4.1005,-11.44075 -14.4375,-8.96875 -4.41,1.061 -6.64175,-0.46525 -9.71875,-2.53125 -4.008,-2.693 -6.028,1.89325 -10,0.78125 -5.493,-1.547 -15.57425,1.90325 -12.40625,9.28125 -13.581,2.937 -24.833,-4.5865 -38.75,0.4375 -9.559,3.448 -22.871,11.653251 -29.625,19.906251 -6.788,8.305 0.5709,12.331 -12.4063,16 -10.9058,3.083 -19.6556,5.63575 -30.5624,5.21875 0.7529,6.212 7.2536,21.43325 4.5624,27.53125 -14.9849,4.855 -36.5632,-9.691 -79.1562,11.875 -19.25,5.703 -41.5355,0.46575 -57.5625,-7.15625 -8.495,-4.053 -19.6399,-8.4165 -26.4687,-14.6875 -6.2512,-5.727 -7.6675,-15.6665 -15.9376,-19.4375 -12.7379,-5.789 -29.3017,-2.35625 -41.7187,-9.40625 -14.629,-8.276 -10.0215,-32.052501 -14.9375,-46.437501 -0.492,-1.443 -7.6344,-0.05475 -9.7812,-1.09375 -5.3152,-2.588 -9.3253,-7.6555 -14.1563,-10.9375 -6.858,-4.657 -23.688,-14.96475 -5.375,-19.09375 9.877,-2.224 -11.1645,-16.43375 6.9375,-22.96875 -6.436,-9.3270004 -15.944,-22.7115004 -30.125,-13.8125004 -5.425,3.41 -10.0186,8.0525004 -15.0938,11.9375004 -4.3778,3.351 -11.6178,4.496 -14.25,9.625 -2.2788,4.448 -20.2495,18.3805 -25.1874,19.8125 -8.952,2.598 -21.3305,1.7405 -29.9376,0.4375 -13.8968,-2.102 -17.4969,-7.09825 -26.125,-16.03125 -4.2178,-4.364 -9.2608,-7.86175 -13.5,-12.21875 -4.3888,-4.511 -6.4057,-11.0382504 -11.4687,-14.9062504 -2.696,-2.0495 -5.5729,-3.77675005 -7.9063,-3.93750005 z"
     style="fill:#239f40"
     inkscape:connector-curvature="0" />
</svg>
